<svg xmlns="http://www.w3.org/2000/svg" xmlns:xlink="http://www.w3.org/1999/xlink" version="1.1" x="0px" y="0px" viewBox="0 0 128 160" style="enable-background:new 0 0 128 128;" xml:space="preserve"><g><path d="M63.8,119.5c17-2,31.7-10.4,40.3-23.1c8-11.8,10.6-27.5,7.1-43c-3.8-17.2-14.7-32.2-30-41.4L74.4,8l4.4,6.6   c12.5,19.1,13.1,43.4,1.5,62c-13.6,21.7-40.7,31.2-65.9,22.9L6.5,97l6,5.6C24.6,113.8,40.3,120,56.5,120   C58.9,120,61.4,119.8,63.8,119.5z"/><path d="M117.4,62.8c0.3,2.1,0.4,4.1,0.4,6.2l3.6,0c0-2.3-0.1-4.4-0.4-6.7L117.4,62.8z"/><path d="M112,93.9c-5.7,11.3-14,18-19.9,21.7l1.9,3.1c6.4-3.9,15.2-11.1,21.3-23.1c3.5-6.9,5.5-14.4,6.1-22.3l-3.6-0.2   C117.2,80.4,115.3,87.4,112,93.9z"/></g></svg>