<svg xmlns="http://www.w3.org/2000/svg" xmlns:xlink="http://www.w3.org/1999/xlink" version="1.1" x="0px" y="0px" viewBox="0 0 64 80" style="enable-background:new 0 0 64 64;" xml:space="preserve"><path d="M32,13c-1.1,0-2-0.9-2-2V3c0-1.1,0.9-2,2-2c1.1,0,2,0.9,2,2v8C34,12.1,33.1,13,32,13z"/><path d="M32,63c-1.1,0-2-0.9-2-2v-8c0-1.1,0.9-2,2-2c1.1,0,2,0.9,2,2v8C34,62.1,33.1,63,32,63z"/><path d="M17.2,19.2c-0.5,0-1-0.2-1.4-0.6l-5.7-5.7c-0.8-0.8-0.8-2,0-2.8s2-0.8,2.8,0l5.7,5.7c0.8,0.8,0.8,2,0,2.8  C18.2,19,17.7,19.2,17.2,19.2z"/><path d="M52.5,54.5c-0.5,0-1-0.2-1.4-0.6l-5.7-5.7c-0.8-0.8-0.8-2,0-2.8s2-0.8,2.8,0l5.7,5.7c0.8,0.8,0.8,2,0,2.8  C53.5,54.3,53,54.5,52.5,54.5z"/><path d="M11,34H3c-1.1,0-2-0.9-2-2s0.9-2,2-2h8c1.1,0,2,0.9,2,2C13,33.1,12.1,34,11,34z"/><path d="M61,34h-8c-1.1,0-2-0.9-2-2s0.9-2,2-2h8c1.1,0,2,0.9,2,2C63,33.1,62.1,34,61,34z"/><path d="M11.5,54.5c-0.5,0-1-0.2-1.4-0.6c-0.8-0.8-0.8-2,0-2.8l5.7-5.7c0.8-0.8,2-0.8,2.8,0c0.8,0.8,0.8,2,0,2.8l-5.7,5.7  C12.5,54.3,12,54.5,11.5,54.5z"/><path d="M46.8,19.2c-0.5,0-1-0.2-1.4-0.6c-0.8-0.8-0.8-2,0-2.8l5.7-5.7c0.8-0.8,2-0.8,2.8,0s0.8,2,0,2.8l-5.7,5.7  C47.9,19,47.4,19.2,46.8,19.2z"/><path d="M32,47c-8.3,0-15-6.7-15-15s6.7-15,15-15s15,6.7,15,15S40.3,47,32,47z"/></svg>